<svg xmlns="http://www.w3.org/2000/svg" viewBox="0 0 47.5 47.5" id="art"><defs><clipPath id="a"><path d="M0 38h38V0H0v38Z"></path></clipPath></defs><g clip-path="url(#a)" transform="matrix(1.25 0 0 -1.25 0 47.5)"><path fill="#d99e82" d="M21.849 9.41c-.395-1.346-2.46-1.924-4.613-1.291-2.153.632-3.578 2.234-3.183 3.581.395 1.346 2.461 1.924 4.613 1.29 2.154-.631 3.579-2.233 3.183-3.58M19 33.857c-9.941 0-18-6.908-18-15.428 0-1.067.127-2.108.367-3.113C3.146 12.256 4.377 14.188 10 17c5.727 2.864 0-4-2-8-.615-1.231-.281-2.272.56-3.124C11.506 4.072 15.104 3 19 3c9.942 0 18 6.907 18 15.429 0 8.52-8.058 15.428-18 15.428"></path><path fill="#5c913b" d="M14 26a3 3 0 1 0-6 0 3 3 0 0 0 6 0"></path><path fill="#269" d="M24 28a3 3 0 1 0-6 0 3 3 0 0 0 6 0"></path><path fill="#dd2e44" d="M33 22a3 3 0 1 0-6 0 3 3 0 0 0 6 0"></path><path fill="#ffcc4d" d="M32 13a3.001 3.001 0 0 0-6 0 3.001 3.001 0 0 0 6 0"></path></g></svg>