{
    "asset": {
        "version": "2.0",
        "generator": "Open Asset Import Library (assimp v5.2.cf7d3637)"
    },
    "extensionsUsed": [
        "KHR_materials_volume",
        "FB_ngon_encoding"
    ],
    "accessors": [
        {
            "bufferView": 0,
            "byteOffset": 0,
            "componentType": 5126,
            "count": 1962,
            "type": "VEC3",
            "max": [
                0.6493377685546875,
                9.008922576904297,
                4.1066060066223148
            ],
            "min": [
                -0.6493377685546875,
                0.0018788576126098633,
                -7.176210880279541
            ]
        },
        {
            "bufferView": 1,
            "byteOffset": 0,
            "componentType": 5126,
            "count": 1962,
            "type": "VEC3",
            "max": [
                1.0,
                1.0,
                1.0
            ],
            "min": [
                -1.0,
                -1.0,
                -1.0
            ]
        },
        {
            "bufferView": 2,
            "byteOffset": 0,
            "componentType": 5126,
            "count": 1962,
            "type": "VEC2",
            "max": [
                0.9851244688034058,
                0.9904083013534546
            ],
            "min": [
                0.00875014066696167,
                0.008307397365570069
            ]
        },
        {
            "bufferView": 3,
            "byteOffset": 0,
            "componentType": 5125,
            "count": 1962,
            "type": "SCALAR",
            "max": [
                1961
            ],
            "min": [
                0
            ]
        }
    ],
    "buffers": [
        {
            "byteLength": 70632,
            "uri": "result.bin"
        }
    ],
    "bufferViews": [
        {
            "buffer": 0,
            "byteOffset": 0,
            "byteLength": 23544,
            "target": 34962
        },
        {
            "buffer": 0,
            "byteOffset": 23544,
            "byteLength": 23544,
            "target": 34962
        },
        {
            "buffer": 0,
            "byteOffset": 47088,
            "byteLength": 15696,
            "target": 34962
        },
        {
            "buffer": 0,
            "byteOffset": 62784,
            "byteLength": 7848,
            "target": 34963
        }
    ],
    "images": [
        {
            "name": "..\\..\\..\\..\\..\\..\\..\\3D\\T_ShoulderLaser_BC.png",
            "uri": "data:image/png;base64,"
        }
    ],
    "materials": [
        {
            "name": "M_ShoulderLaser",
            "pbrMetallicRoughness": {
                "baseColorTexture": {
                    "index": 0
                },
                "baseColorFactor": [
                    0.800000011920929,
                    0.800000011920929,
                    0.800000011920929,
                    1.0
                ],
                "metallicFactor": 0.0
            }
        }
    ],
    "meshes": [
        {
            "name": "WP_ShoulderLaser",
            "primitives": [
                {
                    "extensions": {
                        "FB_ngon_encoding": {}
                    },
                    "mode": 4,
                    "material": 0,
                    "indices": 3,
                    "attributes": {
                        "POSITION": 0,
                        "NORMAL": 1,
                        "TEXCOORD_0": 2
                    }
                }
            ]
        }
    ],
    "nodes": [
        {
            "name": "RootNode",
            "children": [
                1
            ]
        },
        {
            "name": "WP_ShoulderLaser_$AssimpFbx$_RotationPivot",
            "matrix": [
                1.0,
                0.0,
                0.0,
                0.0,
                0.0,
                1.0,
                0.0,
                0.0,
                0.0,
                0.0,
                1.0,
                0.0,
                0.0,
                4.505400657653809,
                -1.5348024368286133,
                1.0
            ],
            "children": [
                2
            ]
        },
        {
            "name": "WP_ShoulderLaser_$AssimpFbx$_RotationPivotInverse",
            "matrix": [
                1.0,
                0.0,
                0.0,
                0.0,
                0.0,
                1.0,
                0.0,
                0.0,
                0.0,
                0.0,
                1.0,
                0.0,
                -0.0,
                -4.505400657653809,
                1.5348024368286133,
                1.0
            ],
            "children": [
                3
            ]
        },
        {
            "name": "WP_ShoulderLaser_$AssimpFbx$_ScalingPivot",
            "matrix": [
                1.0,
                0.0,
                0.0,
                0.0,
                0.0,
                1.0,
                0.0,
                0.0,
                0.0,
                0.0,
                1.0,
                0.0,
                0.0,
                4.505400657653809,
                -1.5348024368286133,
                1.0
            ],
            "children": [
                4
            ]
        },
        {
            "name": "WP_ShoulderLaser_$AssimpFbx$_ScalingPivotInverse",
            "matrix": [
                1.0,
                0.0,
                0.0,
                0.0,
                0.0,
                1.0,
                0.0,
                0.0,
                0.0,
                0.0,
                1.0,
                0.0,
                -0.0,
                -4.505400657653809,
                1.5348024368286133,
                1.0
            ],
            "children": [
                5
            ]
        },
        {
            "name": "WP_ShoulderLaser",
            "mesh": 0,
            "extras": {
                "UserProperties": "",
                "IsNull": false,
                "DefaultAttributeIndex": 0,
                "InheritType": 1,
                "RotationActive": true,
                "ScalingMax": null,
                "currentUVSet": "map1"
            }
        }
    ],
    "samplers": [
        {}
    ],
    "scenes": [
        {
            "nodes": [
                0
            ]
        }
    ],
    "textures": [
        {
            "source": 0,
            "sampler": 0
        }
    ],
    "scene": 0
}