<svg xmlns="http://www.w3.org/2000/svg" viewBox="0 0 32 32" id="texture"><g><path fill="#ffde17" d="M19.9,16a3.88,3.88,0,0,0-3.22-3.83h0a3.83,3.83,0,0,0-1.35,0h0a3.9,3.9,0,0,0,0,7.67h0a3.83,3.83,0,0,0,1.35,0h0A3.88,3.88,0,0,0,19.9,16Z"></path><path fill="#00a14b" d="M17.56,24.12l-.28-.39c-.06-.08-.11-.16-.16-.24L17,23.31c-.07-.12-.15-.23-.22-.36s-.14-.25-.21-.38l-.24-.44L16.26,22l0-.05h-.48l0,.06-.09.19c-.07.14-.15.28-.23.42l-.21.39c-.07.13-.15.24-.22.36l-.12.18-.15.24-.29.39-.25.34L14,24.7a2.09,2.09,0,0,1-.14.17l-.24.28c-.11.11-.22.23-.34.34a4,4,0,0,1-.29.29l-.16.15-.15.12-.05.05-.3.27-.38.29-.33.24-.11.07,0,0h9.11l0,0-.11-.07-.31-.24c-.14-.1-.27-.19-.4-.3l-.3-.26-.05-.05-.14-.12L19,25.78c-.1-.09-.19-.19-.29-.29l-.34-.34-.24-.28L18,24.71l-.2-.25Z"></path><path fill="#ed1c24" d="M21.81 17a5.85 5.85 0 0 1-3.56 4.45.54.54 0 0 0 .05.11A10.36 10.36 0 0 0 19 22.62l.09.13a11.21 11.21 0 0 0 .79 1l0 0a9.24 9.24 0 0 0 .9.87l.08.07a11.05 11.05 0 0 0 1 .72l.15.1a10 10 0 0 0 1 .55l.19.09a10 10 0 0 0 1.08.4l.18.06a10.84 10.84 0 0 0 1.16.25l.13 0A10.38 10.38 0 0 0 27 27h0V17zM21.81 15H27V5a10.38 10.38 0 0 0-1.26.09l-.13 0a10.84 10.84 0 0 0-1.16.25l-.18.06a10 10 0 0 0-1.08.4L23 5.91a10 10 0 0 0-1 .55l-.15.1c-.33.22-.66.46-1 .71a.6.6 0 0 1-.08.08 10.48 10.48 0 0 0-.9.86.08.08 0 0 1 0 0 11.21 11.21 0 0 0-.79 1L19 9.38a10.51 10.51 0 0 0-.65 1.07.31.31 0 0 0-.05.1A5.85 5.85 0 0 1 21.81 15zM6.26 26.91l.13 0a9.1 9.1 0 0 0 1.15-.26l.18-.05a8.27 8.27 0 0 0 1.08-.41L9 26.09a10 10 0 0 0 1-.56l.16-.1a9.51 9.51 0 0 0 1-.71l.1-.08a10.3 10.3 0 0 0 .89-.86l0 0a9.61 9.61 0 0 0 .8-1l.09-.13a10.51 10.51 0 0 0 .65-1.07l.05-.1A5.88 5.88 0 0 1 10.19 17H5V27H5A10.36 10.36 0 0 0 6.26 26.91zM11.12 7.28a9.51 9.51 0 0 0-1-.71L10 6.47a10 10 0 0 0-1-.56L8.8 5.83a8.27 8.27 0 0 0-1.08-.41l-.18 0a9.1 9.1 0 0 0-1.15-.26l-.13 0A10.36 10.36 0 0 0 5 5H5V15h5.19a5.88 5.88 0 0 1 3.54-4.45.47.47 0 0 0-.05-.1A10.51 10.51 0 0 0 13 9.38l-.09-.13a9.61 9.61 0 0 0-.8-1l0 0a10.48 10.48 0 0 0-.9-.86z"></path><path fill="#00a14b" d="M11.87,5.33c.14.1.28.2.41.31l.29.25.07.06.13.12.17.15.28.28c.12.12.24.23.35.36l.24.27.14.16.21.25c.08.11.17.22.25.34l.29.39.15.24.12.18.22.35.21.4c.08.14.16.28.23.42l.09.19,0,.06h.48l0,0,.08-.18.24-.45.2-.37c.08-.12.16-.24.23-.37a1,1,0,0,0,.11-.17c.05-.08.1-.16.16-.24s.19-.27.29-.4l.25-.33.2-.25a1.07,1.07,0,0,0,.14-.16l.24-.27c.11-.13.23-.24.35-.36s.18-.19.28-.28l.16-.15.15-.13.06-.05.29-.25.4-.31.31-.23L20.51,5l0,0H11.43l0,0,.12.07Z"></path></g></svg>